# xmcd
#
# Track frame offsets: 
#        300
#        21920
#        47867
#        71235
#        95695
#        119295
#        148857
#        174405
#        196062
#        219040
#        245547
#
# Disc length: 3595 seconds
#
# Revision: 3
# Processed by: cddbd v1.5.2PL0 Copyright (c) Steve Scherf et al.
# Submitted via: ExactAudioCopy v1.0b3
#
DISCID=a10e070b
DTITLE=Norman Brown - The Very Best of Norman Brown
DYEAR=2005
DGENRE=Jazz
TTITLE0=That's the Way Love Goes
TTITLE1=Better Days Ahead
TTITLE2=Just Between Us
TTITLE3=Any Love
TTITLE4=Too High
TTITLE5=Lydian
TTITLE6=Moonlight Tonight
TTITLE7=After the Storm
TTITLE8=After the Love Is Gone
TTITLE9=Your Body's Callin'
TTITLE10=For the Love of You
EXTD=YEAR: 2005
EXTT0=
EXTT1=
EXTT2=
EXTT3=
EXTT4=
EXTT5=
EXTT6=
EXTT7=
EXTT8=
EXTT9=
EXTT10=
PLAYORDER=
